# 3ds Max Wavefront OBJ Exporter v0.97b - (c)2007 guruware
# File Created: 26.10.2019 13:20:28

mtllib lectern_02.mtl

#
# object Box001
#

v  -0.3601 0.0000 22.1450
v  -0.3601 0.0000 15.4784
v  6.3066 0.0000 15.4784
v  6.3066 0.0000 22.1450
v  12.9732 0.0000 15.4784
v  12.9732 0.0000 22.1450
v  19.6399 0.0000 15.4784
v  19.6399 0.0000 22.1450
v  -0.3601 0.0000 8.8117
v  6.3066 0.0000 8.8117
v  12.9732 0.0000 8.8117
v  19.6399 0.0000 8.8117
v  -0.3601 0.0000 2.1450
v  6.3066 0.0000 2.1450
v  12.9732 0.0000 2.1450
v  19.6399 0.0000 2.1450
v  -0.3601 5.0000 22.1450
v  6.3066 5.0000 22.1450
v  6.3066 5.0000 17.4784
v  6.2753 5.0000 17.0096
v  6.1816 5.0000 16.6034
v  6.0253 5.0000 16.2596
v  5.8066 5.0000 15.9784
v  5.5253 5.0000 15.7596
v  5.1816 5.0000 15.6034
v  4.7753 5.0000 15.5096
v  4.3066 5.0000 15.4784
v  -0.3601 5.0000 15.4784
v  12.9732 5.0000 22.1450
v  12.9732 5.0000 17.4784
v  12.9420 5.0000 17.0096
v  12.8482 5.0000 16.6034
v  12.6920 5.0000 16.2596
v  12.4732 5.0000 15.9784
v  12.1920 5.0000 15.7596
v  11.8482 5.0000 15.6034
v  11.4420 5.0000 15.5096
v  10.9732 5.0000 15.4784
v  8.3066 5.0000 15.4784
v  7.8378 5.0000 15.5096
v  7.4316 5.0000 15.6034
v  7.0878 5.0000 15.7596
v  6.8066 5.0000 15.9784
v  6.5878 5.0000 16.2596
v  6.4316 5.0000 16.6034
v  6.3378 5.0000 17.0096
v  19.6399 5.0000 22.1450
v  19.6399 5.0000 15.4784
v  14.9732 5.0000 15.4784
v  14.5045 5.0000 15.5096
v  14.0982 5.0000 15.6034
v  13.7545 5.0000 15.7596
v  13.4732 5.0000 15.9784
v  13.2545 5.0000 16.2596
v  13.0982 5.0000 16.6034
v  13.0045 5.0000 17.0096
v  4.7753 5.0000 15.4471
v  5.1816 5.0000 15.3534
v  5.5253 5.0000 15.1971
v  5.8066 5.0000 14.9784
v  6.0253 5.0000 14.6971
v  6.1816 5.0000 14.3534
v  6.2753 5.0000 13.9471
v  6.3066 5.0000 13.4784
v  6.3066 5.0000 10.8117
v  6.2753 5.0000 10.3430
v  6.1816 5.0000 9.9367
v  6.0253 5.0000 9.5930
v  5.8066 5.0000 9.3117
v  5.5253 5.0000 9.0930
v  5.1816 5.0000 8.9367
v  4.7753 5.0000 8.8430
v  4.3066 5.0000 8.8117
v  -0.3601 5.0000 8.8117
v  6.3066 102.6780 13.4784
v  6.3378 102.6780 13.9471
v  6.4316 102.6780 14.3534
v  6.5878 102.6780 14.6971
v  6.8066 102.6780 14.9784
v  7.0878 102.6780 15.1971
v  7.4316 102.9570 15.3534
v  7.8378 102.9570 15.4471
v  8.3066 102.9570 15.4784
v  10.9732 103.0184 15.4784
v  11.4420 103.0184 15.4471
v  11.8482 103.0184 15.3534
v  12.1920 103.0184 15.1971
v  12.4732 103.0184 14.9784
v  12.6920 102.6780 14.6971
v  12.8482 102.6780 14.3534
v  12.9420 102.6780 13.9471
v  12.9732 102.6826 13.4784
v  12.9732 98.7864 10.8117
v  12.9420 98.7864 10.3430
v  12.8482 95.0000 9.9367
v  12.6920 95.0000 9.5930
v  12.4732 95.0000 9.3117
v  12.1920 95.0000 9.0930
v  11.8482 95.0000 8.9367
v  11.4420 95.0000 8.8430
v  10.9732 95.0000 8.8117
v  8.3066 95.0000 8.8117
v  7.8378 95.0000 8.8430
v  7.4316 95.0000 8.9367
v  7.0878 95.0000 9.0930
v  6.8066 95.0000 9.3117
v  6.5878 95.0000 9.5930
v  6.4316 95.0000 9.9367
v  6.3378 98.7864 10.3430
v  6.3066 98.7864 10.8117
v  12.9732 5.0047 13.4784
v  13.0045 5.0000 13.9471
v  13.0982 5.0000 14.3534
v  13.2545 5.0000 14.6971
v  13.4732 5.0000 14.9784
v  13.7545 5.0000 15.1971
v  14.0982 5.0000 15.3534
v  14.5045 5.0000 15.4471
v  19.6399 5.0000 8.8117
v  14.9732 5.0000 8.8117
v  14.5045 5.0000 8.8430
v  14.0982 5.0000 8.9367
v  13.7545 5.0000 9.0930
v  13.4732 5.0000 9.3117
v  13.2545 5.0000 9.5930
v  13.0982 5.0000 9.9367
v  13.0045 5.0000 10.3430
v  12.9732 5.0000 10.8117
v  4.7753 5.0000 8.7805
v  5.1816 5.0000 8.6867
v  5.5253 5.0000 8.5305
v  5.8066 5.0000 8.3117
v  6.0253 5.0000 8.0305
v  6.1816 5.0000 7.6867
v  6.2753 5.0000 7.2805
v  6.3066 5.0000 6.8117
v  6.3066 5.0000 2.1450
v  -0.3601 5.0000 2.1450
v  6.3378 5.0000 7.2805
v  6.4316 5.0000 7.6867
v  6.5878 5.0000 8.0305
v  6.8066 5.0000 8.3117
v  7.0878 5.0000 8.5305
v  7.4316 5.0000 8.6867
v  7.8378 5.0000 8.7805
v  8.3066 5.0000 8.8117
v  10.9732 5.0000 8.8117
v  11.4420 5.0000 8.7805
v  11.8482 5.0000 8.6867
v  12.1920 5.0000 8.5305
v  12.4732 5.0000 8.3117
v  12.6920 5.0000 8.0305
v  12.8482 5.0000 7.6867
v  12.9420 5.0000 7.2805
v  12.9732 5.0000 6.8117
v  12.9732 5.0000 2.1450
v  13.0045 5.0000 7.2805
v  13.0982 5.0000 7.6867
v  13.2545 5.0000 8.0305
v  13.4732 5.0000 8.3117
v  13.7545 5.0000 8.5305
v  14.0982 5.0000 8.6867
v  14.5045 5.0000 8.7805
v  19.6399 5.0000 2.1450
v  12.4732 5.0000 14.9784
v  11.4420 5.0000 15.4471
v  12.9420 5.0000 13.9471
v  12.8482 5.0000 14.3534
v  11.8482 5.0000 15.3534
v  12.6920 5.0000 14.6971
v  12.1920 5.0000 15.1971
v  12.4732 5.0000 9.3117
v  12.9420 5.0000 10.3430
v  11.4420 5.0000 8.8430
v  11.8482 5.0000 8.9367
v  12.8482 5.0000 9.9367
v  12.1920 5.0000 9.0930
v  12.6920 5.0000 9.5930
v  6.8066 5.0000 9.3117
v  7.8378 5.0000 8.8430
v  6.3378 5.0000 10.3430
v  6.4316 5.0000 9.9367
v  7.4316 5.0000 8.9367
v  6.5878 5.0000 9.5930
v  7.0878 5.0000 9.0930
v  6.8066 5.0000 14.9784
v  6.3378 5.0000 13.9471
v  7.8378 5.0000 15.4471
v  7.4316 5.0000 15.3534
v  6.4316 5.0000 14.3534
v  7.0878 5.0000 15.1971
v  6.5878 5.0000 14.6971
# 192 vertices

vn -0.5774 -0.5774 0.5774
vn -0.7071 -0.7071 -0.0000
vn 0.0000 -1.0000 -0.0000
vn 0.0000 -0.7071 0.7071
vn 0.7071 -0.7071 -0.0000
vn 0.5774 -0.5774 0.5774
vn -0.5774 -0.5774 -0.5774
vn 0.0000 -0.7071 -0.7071
vn 0.5774 -0.5774 -0.5774
vn -0.5774 0.5774 0.5774
vn 0.0000 0.7071 0.7071
vn 0.0000 1.0000 -0.0000
vn -0.7071 0.7071 -0.0000
vn 0.0233 0.7146 0.6991
vn -0.0233 0.7147 0.6990
vn 0.5774 0.5774 0.5774
vn 0.7071 0.7071 -0.0000
vn -0.6990 0.7147 0.0233
vn -0.6991 0.7146 -0.0233
vn -0.0477 0.9268 -0.3725
vn -0.7165 0.6895 0.1059
vn -0.6897 0.6853 0.2337
vn -0.6261 0.6817 0.3786
vn -0.5183 0.6802 0.5183
vn -0.5414 0.1206 0.8321
vn -0.2984 0.9517 0.0720
vn -0.1059 0.6895 0.7165
vn -0.0337 0.5716 0.8198
vn 0.0105 0.8084 0.5886
vn 0.1059 0.6895 0.7165
vn 0.2337 0.6853 0.6897
vn 0.3786 0.6817 0.6261
vn 0.3315 0.9388 -0.0932
vn 0.8668 0.0900 0.4904
vn 0.6897 0.6853 0.2337
vn 0.7368 0.6668 0.1120
vn 0.0473 0.9285 -0.3684
vn 0.9991 0.0157 -0.0396
vn -0.0162 0.8599 -0.5102
vn 0.9460 0.0059 -0.3242
vn 0.6261 0.6817 -0.3786
vn 0.5183 0.6802 -0.5183
vn 0.3786 0.6817 -0.6261
vn 0.2337 0.6853 -0.6897
vn 0.1059 0.6896 -0.7164
vn 0.0238 0.6997 -0.7140
vn -0.0238 0.6997 -0.7140
vn -0.1059 0.6896 -0.7164
vn -0.2337 0.6853 -0.6897
vn -0.3786 0.6817 -0.6261
vn -0.5183 0.6802 -0.5183
vn -0.6261 0.6817 -0.3786
vn -0.9460 0.0059 -0.3242
vn 0.0162 0.8599 -0.5102
vn -0.9991 0.0157 -0.0396
vn 0.7584 0.6515 0.0209
vn -0.0287 0.9995 0.0090
vn 0.6897 0.7237 -0.0248
vn 0.0000 0.7071 -0.7071
vn -0.5774 0.5774 -0.5774
vn -0.0233 0.7147 -0.6990
vn 0.0233 0.7147 -0.6990
vn 0.5774 0.5774 -0.5774
vn 0.4786 0.7361 0.4786
vn 0.1006 0.7256 0.6807
vn 0.6794 0.7264 0.1038
vn 0.6470 0.7303 0.2192
vn 0.2192 0.7303 0.6470
vn 0.5808 0.7344 0.3512
vn 0.3512 0.7344 0.5808
vn 0.4786 0.7361 -0.4786
vn 0.6807 0.7256 -0.1006
vn 0.1006 0.7256 -0.6807
vn 0.2192 0.7303 -0.6470
vn 0.6470 0.7303 -0.2192
vn 0.3512 0.7344 -0.5808
vn 0.5808 0.7344 -0.3512
vn -0.4786 0.7361 -0.4786
vn -0.1006 0.7256 -0.6807
vn -0.6807 0.7256 -0.1006
vn -0.6470 0.7303 -0.2192
vn -0.2192 0.7303 -0.6470
vn -0.5808 0.7344 -0.3512
vn -0.3512 0.7344 -0.5808
vn -0.4786 0.7361 0.4786
vn -0.6808 0.7255 0.1006
vn -0.1006 0.7255 0.6808
vn -0.2192 0.7303 0.6470
vn -0.6470 0.7303 0.2192
vn -0.3512 0.7344 0.5808
vn -0.5808 0.7344 0.3512
# 91 vertex normals

vt 1.0000 0.0000 0.0000
vt 1.0000 0.3333 0.0000
vt 0.6667 0.3333 0.0000
vt 0.6667 0.0000 0.0000
vt 0.3333 0.3333 0.0000
vt 0.3333 0.0000 0.0000
vt -0.0000 0.3333 0.0000
vt -0.0000 0.0000 0.0000
vt 1.0000 0.6667 0.0000
vt 0.6667 0.6667 0.0000
vt 0.3333 0.6667 0.0000
vt -0.0000 0.6667 0.0000
vt 1.0000 1.0000 0.0000
vt 0.6667 1.0000 0.0000
vt 0.3333 1.0000 0.0000
vt -0.0000 1.0000 0.0000
vt 0.0000 0.0000 0.0000
vt 0.3333 0.2333 0.0000
vt 0.3318 0.2568 0.0000
vt 0.3271 0.2771 0.0000
vt 0.3193 0.2943 0.0000
vt 0.3083 0.3083 0.0000
vt 0.2943 0.3193 0.0000
vt 0.2771 0.3271 0.0000
vt 0.2568 0.3318 0.0000
vt 0.2333 0.3333 0.0000
vt 0.0000 0.3333 0.0000
vt 0.6667 0.2333 0.0000
vt 0.6651 0.2568 0.0000
vt 0.6604 0.2771 0.0000
vt 0.6526 0.2943 0.0000
vt 0.6417 0.3083 0.0000
vt 0.6276 0.3193 0.0000
vt 0.6104 0.3271 0.0000
vt 0.5901 0.3318 0.0000
vt 0.5667 0.3333 0.0000
vt 0.4333 0.3333 0.0000
vt 0.4099 0.3318 0.0000
vt 0.3896 0.3271 0.0000
vt 0.3724 0.3193 0.0000
vt 0.3583 0.3083 0.0000
vt 0.3474 0.2943 0.0000
vt 0.3396 0.2771 0.0000
vt 0.3349 0.2568 0.0000
vt 0.7667 0.3333 0.0000
vt 0.7432 0.3318 0.0000
vt 0.7229 0.3271 0.0000
vt 0.7057 0.3193 0.0000
vt 0.6917 0.3083 0.0000
vt 0.6807 0.2943 0.0000
vt 0.6729 0.2771 0.0000
vt 0.6682 0.2568 0.0000
vt 0.2568 0.3349 0.0000
vt 0.2771 0.3396 0.0000
vt 0.2943 0.3474 0.0000
vt 0.3083 0.3583 0.0000
vt 0.3193 0.3724 0.0000
vt 0.3271 0.3896 0.0000
vt 0.3318 0.4099 0.0000
vt 0.3333 0.4333 0.0000
vt 0.3333 0.5667 0.0000
vt 0.3318 0.5901 0.0000
vt 0.3271 0.6104 0.0000
vt 0.3193 0.6276 0.0000
vt 0.3083 0.6417 0.0000
vt 0.2943 0.6526 0.0000
vt 0.2771 0.6604 0.0000
vt 0.2568 0.6651 0.0000
vt 0.2333 0.6667 0.0000
vt 0.0000 0.6667 0.0000
vt 0.3349 0.4099 0.0000
vt 0.3396 0.3896 0.0000
vt 0.3474 0.3724 0.0000
vt 0.3583 0.3583 0.0000
vt 0.3724 0.3474 0.0000
vt 0.3896 0.3396 0.0000
vt 0.4099 0.3349 0.0000
vt 0.5901 0.3349 0.0000
vt 0.6104 0.3396 0.0000
vt 0.6276 0.3474 0.0000
vt 0.6417 0.3583 0.0000
vt 0.6526 0.3724 0.0000
vt 0.6604 0.3896 0.0000
vt 0.6651 0.4099 0.0000
vt 0.6667 0.4333 0.0000
vt 0.6667 0.5667 0.0000
vt 0.6651 0.5901 0.0000
vt 0.6604 0.6104 0.0000
vt 0.6526 0.6276 0.0000
vt 0.6417 0.6417 0.0000
vt 0.6276 0.6526 0.0000
vt 0.6104 0.6604 0.0000
vt 0.5901 0.6651 0.0000
vt 0.5667 0.6667 0.0000
vt 0.4333 0.6667 0.0000
vt 0.4099 0.6651 0.0000
vt 0.3896 0.6604 0.0000
vt 0.3724 0.6526 0.0000
vt 0.3583 0.6417 0.0000
vt 0.3474 0.6276 0.0000
vt 0.3396 0.6104 0.0000
vt 0.3349 0.5901 0.0000
vt 0.6682 0.4099 0.0000
vt 0.6729 0.3896 0.0000
vt 0.6807 0.3724 0.0000
vt 0.6917 0.3583 0.0000
vt 0.7057 0.3474 0.0000
vt 0.7229 0.3396 0.0000
vt 0.7432 0.3349 0.0000
vt 0.7667 0.6667 0.0000
vt 0.7432 0.6651 0.0000
vt 0.7229 0.6604 0.0000
vt 0.7057 0.6526 0.0000
vt 0.6917 0.6417 0.0000
vt 0.6807 0.6276 0.0000
vt 0.6729 0.6104 0.0000
vt 0.6682 0.5901 0.0000
vt 0.2568 0.6682 0.0000
vt 0.2771 0.6729 0.0000
vt 0.2943 0.6807 0.0000
vt 0.3083 0.6917 0.0000
vt 0.3193 0.7057 0.0000
vt 0.3271 0.7229 0.0000
vt 0.3318 0.7432 0.0000
vt 0.3333 0.7667 0.0000
vt 0.0000 1.0000 0.0000
vt 0.3349 0.7432 0.0000
vt 0.3396 0.7229 0.0000
vt 0.3474 0.7057 0.0000
vt 0.3583 0.6917 0.0000
vt 0.3724 0.6807 0.0000
vt 0.3896 0.6729 0.0000
vt 0.4099 0.6682 0.0000
vt 0.5901 0.6682 0.0000
vt 0.6104 0.6729 0.0000
vt 0.6276 0.6807 0.0000
vt 0.6417 0.6917 0.0000
vt 0.6526 0.7057 0.0000
vt 0.6604 0.7229 0.0000
vt 0.6651 0.7432 0.0000
vt 0.6667 0.7667 0.0000
vt 0.6682 0.7432 0.0000
vt 0.6729 0.7229 0.0000
vt 0.6807 0.7057 0.0000
vt 0.6917 0.6917 0.0000
vt 0.7057 0.6807 0.0000
vt 0.7229 0.6729 0.0000
vt 0.7432 0.6682 0.0000
vt 0.6167 0.3833 0.0000
vt 0.5792 0.3458 0.0000
vt 0.6542 0.4208 0.0000
vt 0.6417 0.4083 0.0000
vt 0.5917 0.3583 0.0000
vt 0.6292 0.3958 0.0000
vt 0.6042 0.3708 0.0000
vt 0.3833 0.3833 0.0000
vt 0.3458 0.4208 0.0000
vt 0.4208 0.3458 0.0000
vt 0.4083 0.3583 0.0000
vt 0.3583 0.4083 0.0000
vt 0.3958 0.3708 0.0000
vt 0.3708 0.3958 0.0000
# 162 texture coords

o Box001
g Box001
usemtl wire_143225087
s 1
f 1/1/1 2/2/2 3/3/3 4/4/4 
f 4/4/4 3/3/3 5/5/3 6/6/4 
f 6/6/4 5/5/3 7/7/5 8/8/6 
f 2/2/2 9/9/2 10/10/3 3/3/3 
f 3/3/3 10/10/3 11/11/3 5/5/3 
f 5/5/3 11/11/3 12/12/5 7/7/5 
f 9/9/2 13/13/7 14/14/8 10/10/3 
f 10/10/3 14/14/8 15/15/8 11/11/3 
f 11/11/3 15/15/8 16/16/9 12/12/5 
f 17/17/10 18/6/11 19/18/12 20/19/12 21/20/12 22/21/12 23/22/12 24/23/12 25/24/12 26/25/12 27/26/12 28/27/13 
f 18/6/11 29/4/11 30/28/12 31/29/12 32/30/12 33/31/12 34/32/12 35/33/12 36/34/12 37/35/12 38/36/14 39/37/15 40/38/12 41/39/12 42/40/12 43/41/12 44/42/12 45/43/12 46/44/12 19/18/12 
f 29/4/11 47/1/16 48/2/17 49/45/12 50/46/12 51/47/12 52/48/12 53/49/12 54/50/12 55/51/12 56/52/12 30/28/12 
f 28/27/13 27/26/12 57/53/12 58/54/12 59/55/12 60/56/12 61/57/12 62/58/12 63/59/12 64/60/18 65/61/19 66/62/12 67/63/12 68/64/12 69/65/12 70/66/12 71/67/12 72/68/12 73/69/12 74/70/13 
f 75/60/20 76/71/21 77/72/22 78/73/23 79/74/24 80/75/25 81/76/26 82/77/27 83/37/28 84/36/29 85/78/30 86/79/31 87/80/32 88/81/33 89/82/34 90/83/35 91/84/36 92/85/37 93/86/38 94/87/39 95/88/40 96/89/41 97/90/42 98/91/43 99/92/44 100/93/45 101/94/46 102/95/47 103/96/48 104/97/49 105/98/50 106/99/51 107/100/52 108/101/53 109/102/54 110/61/55 
f 111/85/56 112/103/57 113/104/12 114/105/12 115/106/12 116/107/12 117/108/12 118/109/12 49/45/12 48/2/17 119/9/17 120/110/12 121/111/12 122/112/12 123/113/12 124/114/12 125/115/12 126/116/12 127/117/12 128/86/58 
f 74/70/13 73/69/12 129/118/12 130/119/12 131/120/12 132/121/12 133/122/12 134/123/12 135/124/12 136/125/12 137/15/59 138/126/60 
f 136/125/12 139/127/12 140/128/12 141/129/12 142/130/12 143/131/12 144/132/12 145/133/12 146/95/61 147/94/62 148/134/12 149/135/12 150/136/12 151/137/12 152/138/12 153/139/12 154/140/12 155/141/12 156/14/59 137/15/59 
f 155/141/12 157/142/12 158/143/12 159/144/12 160/145/12 161/146/12 162/147/12 163/148/12 120/110/12 119/9/17 164/13/63 156/14/59 
s 2
f 1/17/1 4/6/4 18/15/11 17/126/10 
f 4/6/4 6/4/4 29/14/11 18/15/11 
f 6/4/4 8/1/6 47/13/16 29/14/11 
s 4
f 8/17/6 7/6/5 48/15/17 47/126/16 
f 7/6/5 12/4/5 119/14/17 48/15/17 
f 12/4/5 16/1/9 164/13/63 119/14/17 
s 2
f 16/17/9 15/6/8 156/15/59 164/126/63 
f 15/6/8 14/4/8 137/14/59 156/15/59 
f 14/4/8 13/1/7 138/13/60 137/14/59 
s 4
f 13/17/7 9/6/2 74/15/13 138/126/60 
f 9/6/2 2/4/2 28/14/13 74/15/13 
f 2/4/2 1/1/1 17/13/10 28/14/13 
s 2
f 39/37/15 38/36/14 84/36/29 83/37/28 
f 111/85/56 128/86/58 93/86/38 92/85/37 
f 147/94/62 146/95/61 102/95/47 101/94/46 
f 65/61/19 64/60/18 75/60/20 110/61/55 
s 1
f 53/49/12 115/106/12 165/149/64 34/32/12 
s 2
f 38/36/14 166/150/65 85/78/30 84/36/29 
s 1
f 31/29/12 30/28/12 56/52/12 
f 50/46/12 49/45/12 118/109/12 
f 112/103/57 111/85/56 167/151/66 
f 166/150/65 38/36/14 37/35/12 
f 32/30/12 31/29/12 56/52/12 55/51/12 
f 51/47/12 50/46/12 118/109/12 117/108/12 
f 113/104/12 112/103/57 167/151/66 168/152/67 
f 169/153/68 166/150/65 37/35/12 36/34/12 
f 33/31/12 32/30/12 55/51/12 54/50/12 
f 52/48/12 51/47/12 117/108/12 116/107/12 
f 114/105/12 113/104/12 168/152/67 170/154/69 
f 171/155/70 169/153/68 36/34/12 35/33/12 
f 34/32/12 33/31/12 54/50/12 53/49/12 
f 53/49/12 52/48/12 116/107/12 115/106/12 
f 115/106/12 114/105/12 170/154/69 165/149/64 
f 165/149/64 171/155/70 35/33/12 34/32/12 
s 2
f 166/150/65 169/153/68 86/79/31 85/78/30 
f 169/153/68 171/155/70 87/80/32 86/79/31 
f 171/155/70 165/149/64 88/81/33 87/80/32 
f 165/149/64 170/154/69 89/82/34 88/81/33 
f 170/154/69 168/152/67 90/83/35 89/82/34 
f 168/152/67 167/151/66 91/84/36 90/83/35 
f 167/151/66 111/85/56 92/85/37 91/84/36 
s 1
f 172/90/71 124/114/12 160/145/12 151/137/12 
s 2
f 128/86/58 173/87/72 94/87/39 93/86/38 
s 1
f 148/134/12 147/94/62 174/93/73 
f 173/87/72 128/86/58 127/117/12 
f 121/111/12 120/110/12 163/148/12 
f 157/142/12 155/141/12 154/140/12 
f 149/135/12 148/134/12 174/93/73 175/92/74 
f 176/88/75 173/87/72 127/117/12 126/116/12 
f 122/112/12 121/111/12 163/148/12 162/147/12 
f 158/143/12 157/142/12 154/140/12 153/139/12 
f 150/136/12 149/135/12 175/92/74 177/91/76 
f 178/89/77 176/88/75 126/116/12 125/115/12 
f 123/113/12 122/112/12 162/147/12 161/146/12 
f 159/144/12 158/143/12 153/139/12 152/138/12 
f 151/137/12 150/136/12 177/91/76 172/90/71 
f 172/90/71 178/89/77 125/115/12 124/114/12 
f 124/114/12 123/113/12 161/146/12 160/145/12 
f 160/145/12 159/144/12 152/138/12 151/137/12 
s 2
f 173/87/72 176/88/75 95/88/40 94/87/39 
f 176/88/75 178/89/77 96/89/41 95/88/40 
f 178/89/77 172/90/71 97/90/42 96/89/41 
f 172/90/71 177/91/76 98/91/43 97/90/42 
f 177/91/76 175/92/74 99/92/44 98/91/43 
f 175/92/74 174/93/73 100/93/45 99/92/44 
f 174/93/73 147/94/62 101/94/46 100/93/45 
s 1
f 179/99/78 142/130/12 132/121/12 69/65/12 
s 2
f 146/95/61 180/96/79 103/96/48 102/95/47 
s 1
f 66/62/12 65/61/19 181/102/80 
f 180/96/79 146/95/61 145/133/12 
f 139/127/12 136/125/12 135/124/12 
f 129/118/12 73/69/12 72/68/12 
f 67/63/12 66/62/12 181/102/80 182/101/81 
f 183/97/82 180/96/79 145/133/12 144/132/12 
f 140/128/12 139/127/12 135/124/12 134/123/12 
f 130/119/12 129/118/12 72/68/12 71/67/12 
f 68/64/12 67/63/12 182/101/81 184/100/83 
f 185/98/84 183/97/82 144/132/12 143/131/12 
f 141/129/12 140/128/12 134/123/12 133/122/12 
f 131/120/12 130/119/12 71/67/12 70/66/12 
f 69/65/12 68/64/12 184/100/83 179/99/78 
f 179/99/78 185/98/84 143/131/12 142/130/12 
f 142/130/12 141/129/12 133/122/12 132/121/12 
f 132/121/12 131/120/12 70/66/12 69/65/12 
s 2
f 180/96/79 183/97/82 104/97/49 103/96/48 
f 183/97/82 185/98/84 105/98/50 104/97/49 
f 185/98/84 179/99/78 106/99/51 105/98/50 
f 179/99/78 184/100/83 107/100/52 106/99/51 
f 184/100/83 182/101/81 108/101/53 107/100/52 
f 182/101/81 181/102/80 109/102/54 108/101/53 
f 181/102/80 65/61/19 110/61/55 109/102/54 
s 1
f 43/41/12 186/156/85 60/56/12 23/22/12 
s 2
f 64/60/18 187/157/86 76/71/21 75/60/20 
s 1
f 20/19/12 19/18/12 46/44/12 
f 40/38/12 39/37/15 188/158/87 
f 187/157/86 64/60/18 63/59/12 
f 57/53/12 27/26/12 26/25/12 
f 21/20/12 20/19/12 46/44/12 45/43/12 
f 41/39/12 40/38/12 188/158/87 189/159/88 
f 190/160/89 187/157/86 63/59/12 62/58/12 
f 58/54/12 57/53/12 26/25/12 25/24/12 
f 22/21/12 21/20/12 45/43/12 44/42/12 
f 42/40/12 41/39/12 189/159/88 191/161/90 
f 192/162/91 190/160/89 62/58/12 61/57/12 
f 59/55/12 58/54/12 25/24/12 24/23/12 
f 23/22/12 22/21/12 44/42/12 43/41/12 
f 43/41/12 42/40/12 191/161/90 186/156/85 
f 186/156/85 192/162/91 61/57/12 60/56/12 
f 60/56/12 59/55/12 24/23/12 23/22/12 
s 2
f 187/157/86 190/160/89 77/72/22 76/71/21 
f 190/160/89 192/162/91 78/73/23 77/72/22 
f 192/162/91 186/156/85 79/74/24 78/73/23 
f 186/156/85 191/161/90 80/75/25 79/74/24 
f 191/161/90 189/159/88 81/76/26 80/75/25 
f 189/159/88 188/158/87 82/77/27 81/76/26 
f 188/158/87 39/37/15 83/37/28 82/77/27 
# 118 polygons - 16 triangles

#
# object Box002
#

v  -9.3913 109.9803 17.3604
v  -9.3913 101.3491 13.3363
v  3.2962 101.3491 13.3363
v  3.2962 109.9803 17.3604
v  15.9836 101.3491 13.3363
v  15.9836 109.9803 17.3604
v  28.6711 101.3491 13.3363
v  28.6711 109.9803 17.3604
v  -9.3913 86.1698 6.2593
v  3.2962 86.1698 6.2593
v  15.9836 86.1698 6.2593
v  28.6711 86.1698 6.2593
v  -9.3913 84.0868 5.2882
v  3.2962 84.0868 5.2882
v  15.9836 84.0868 5.2882
v  28.6711 84.0868 5.2882
v  -9.3913 111.8630 15.8290
v  3.2962 111.8630 15.8290
v  3.2962 103.2319 11.8049
v  -9.3913 103.2319 11.8049
v  15.9836 111.8630 15.8290
v  15.9836 103.2319 11.8049
v  28.6711 111.8630 15.8290
v  28.6711 103.2319 11.8049
v  3.2962 88.0525 4.7279
v  -9.3913 88.0525 4.7279
v  15.9836 88.0525 4.7279
v  28.6711 88.0525 4.7279
v  3.2962 88.9877 1.3018
v  -9.3913 88.9877 1.3018
v  15.9836 88.9877 1.3018
v  28.6711 88.9877 1.3018
# 32 vertices

vn -0.6049 0.0979 0.7902
vn -0.7071 -0.2988 0.6408
vn 0.0000 -0.4226 0.9063
vn 0.0000 0.1230 0.9924
vn 0.7071 -0.2988 0.6408
vn 0.6049 0.0979 0.7903
vn -0.7071 -0.2988 0.6409
vn -0.0000 -0.4226 0.9063
vn 0.7071 -0.2988 0.6409
vn -0.5572 -0.8241 0.1023
vn -0.0000 -0.9924 0.1230
vn 0.0000 -0.9924 0.1230
vn 0.5573 -0.8240 0.1020
vn -0.5573 0.8240 -0.1023
vn 0.0000 0.9924 -0.1230
vn 0.0000 0.4226 -0.9063
vn -0.7071 0.2988 -0.6409
vn 0.5572 0.8240 -0.1021
vn 0.7071 0.2988 -0.6408
vn 0.0000 0.9073 -0.4205
vn -0.8840 0.4241 -0.1966
vn -0.0000 0.9073 -0.4205
vn 0.8841 0.4241 -0.1965
vn -0.0000 0.5457 -0.8380
vn -0.5432 0.4582 -0.7036
vn 0.5432 0.4582 -0.7036
# 26 vertex normals

vt 1.0000 0.0000 0.0000
vt 1.0000 0.3333 0.0000
vt 0.6667 0.3333 0.0000
vt 0.6667 0.0000 0.0000
vt 0.3333 0.3333 0.0000
vt 0.3333 0.0000 0.0000
vt -0.0000 0.3333 0.0000
vt -0.0000 0.0000 0.0000
vt 1.0000 0.6667 0.0000
vt 0.6667 0.6667 0.0000
vt 0.3333 0.6667 0.0000
vt -0.0000 0.6667 0.0000
vt 1.0000 1.0000 0.0000
vt 0.6667 1.0000 0.0000
vt 0.3333 1.0000 0.0000
vt -0.0000 1.0000 0.0000
vt 0.0000 0.0000 0.0000
vt 0.0000 0.3333 0.0000
vt 0.0000 0.6667 0.0000
vt 0.0000 1.0000 0.0000
# 20 texture coords

o Box002
g Box002
usemtl wire_008008136
s 2
f 193/163/92 194/164/93 195/165/94 196/166/95 
f 196/166/95 195/165/94 197/167/94 198/168/95 
f 198/168/95 197/167/94 199/169/96 200/170/97 
f 194/164/93 201/171/98 202/172/99 195/165/94 
f 195/165/94 202/172/99 203/173/99 197/167/94 
f 197/167/94 203/173/99 204/174/100 199/169/96 
f 201/171/98 205/175/101 206/176/102 202/172/99 
f 202/172/99 206/176/102 207/177/103 203/173/99 
f 203/173/99 207/177/103 208/178/104 204/174/100 
s 4
f 209/179/105 210/168/106 211/167/107 212/180/108 
f 210/168/106 213/166/106 214/165/107 211/167/107 
f 213/166/106 215/163/109 216/164/110 214/165/107 
f 212/180/108 211/167/107 217/173/111 218/181/112 
f 211/167/107 214/165/107 219/172/113 217/173/111 
f 214/165/107 216/164/110 220/171/114 219/172/113 
f 218/181/112 217/173/111 221/177/115 222/182/116 
f 217/173/111 219/172/113 223/176/115 221/177/115 
f 219/172/113 220/171/114 224/175/117 223/176/115 
s 8
f 193/179/92 196/168/95 210/177/106 209/182/105 
f 196/168/95 198/166/95 213/176/106 210/177/106 
f 198/166/95 200/163/97 215/175/109 213/176/106 
s 16
f 200/179/97 199/168/96 216/177/110 215/182/109 
f 199/168/96 204/166/100 220/176/114 216/177/110 
f 204/166/100 208/163/104 224/175/117 220/176/114 
s 32
f 208/179/104 207/168/103 223/177/115 224/182/117 
f 207/168/103 206/166/102 221/176/115 223/177/115 
f 206/166/102 205/163/101 222/175/116 221/176/115 
s 64
f 205/179/101 201/168/98 218/177/112 222/182/116 
f 201/168/98 194/166/93 212/176/108 218/177/112 
f 194/166/93 193/163/92 209/175/105 212/176/108 
# 30 polygons

